<svg xmlns="http://www.w3.org/2000/svg" viewBox="0 0 960 960"><path d="M928 479.9c0 54-22 93-66 117-12 6.7-50.2 16.8-114.5 30.5S615.3 653.2 544 663.9v185c0 19.3-7.7 33-23 41-16.7 8.7-32.7 8.3-48-1-68-42.7-138.7-95.8-212-159.5S134 616.2 100 580.9s-55.7-58.7-65-70c-7.3-8.7-11-18.8-11-30.5s3.7-21.8 11-30.5c9.3-11.3 30.7-34.5 64-69.5s86.3-84 159-147S400.7 117.5 468 74.9c8.7-7.3 18.7-11 30-11 12.7 0 23.5 4.5 32.5 13.5S544 97.5 544 110.9v184c70 10.7 137.3 22.8 202 36.5s103.3 23.8 116 30.5c44 24 66 63.3 66 118z"/></svg>
