<svg xmlns="http://www.w3.org/2000/svg" viewBox="0 0 960 960"><path d="M896.1 500.5c0 12.7-4.7 23.7-14 33s-20.3 14-33 14h-184c-10.7 70-23 137.3-37 202s-24 103-30 115c-24.7 44.7-64 67-118 67-53.3 0-92.3-22.3-117-67-6.7-12-16.8-49.8-30.5-113.5s-25.8-131.5-36.5-203.5h-185c-18.7 0-32.3-8-41-24-8.7-16.7-8.3-32.7 1-48 26.7-42.7 57.8-86.7 93.5-132s68.7-84.8 99-118.5 60.2-65.2 89.5-94.5 51.7-51 67-65 25-22.7 29-26c8.7-7.3 18.8-11 30.5-11s21.8 3.7 30.5 11c12 9.3 35.2 30.5 69.5 63.5s83.2 85.7 146.5 158 116.3 142.2 159 209.5c7.4 8.7 11 18.7 11 30z"/></svg>
