<svg xmlns="http://www.w3.org/2000/svg" viewBox="0 0 960 960"><path d="M480 0c86.7 0 166.8 21.5 240.5 64.5s132 101.3 175 175S960 393.3 960 480s-21.5 166.8-64.5 240.5-101.3 132-175 175S566.7 960 480 960s-166.8-21.5-240.5-64.5-132-101.3-175-175S0 566.7 0 480s21.5-166.8 64.5-240.5 101.3-132 175-175S393.3 0 480 0zm0 234c20.7 0 38.2-7.2 52.5-21.5S554 180.7 554 160s-7.2-38.2-21.5-52.5S500.7 86 480 86s-38.2 7.2-52.5 21.5S406 139.3 406 160s7.2 38.2 21.5 52.5S459.3 234 480 234zm0 540c37.3 0 69.5-13.2 96.5-39.5S617 676.7 617 640c0-34.7-8-62.3-24-83l86-271c6-16 1.7-29-13-39-8-4.7-16.5-6-25.5-4s-15.8 7-20.5 15L462 508c-32.7 4.7-60.2 19.5-82.5 44.5S346 606.7 346 640c0 37.3 13 69 39 95s57.7 39 95 39zm320-220c20.7 0 38.2-7.2 52.5-21.5S874 500.7 874 480s-7.2-38.2-21.5-52.5S820.7 406 800 406s-38.2 7.2-52.5 21.5S726 459.3 726 480s7.2 38.2 21.5 52.5S779.3 554 800 554zm-640 0c20.7 0 38.2-7.2 52.5-21.5S234 500.7 234 480s-7.2-38.2-21.5-52.5S180.7 406 160 406s-38.2 7.2-52.5 21.5S86 459.3 86 480s7.2 38.2 21.5 52.5S139.3 554 160 554z"/></svg>
