<svg xmlns="http://www.w3.org/2000/svg" viewBox="0 0 960 960"><path d="M628 480l189 190c8.7 8 13.7 17.5 15 28.5s-1.3 20.2-8 27.5c-28.7 36.7-61.3 69.3-98 98-7.3 6.7-16.5 9.3-27.5 8s-20.8-6-29.5-14L480 628 290 818c-8 8-17.5 12.7-28.5 14s-20.5-1.3-28.5-8c-36-28.7-68.3-61-97-97-6.7-8-9.3-17.5-8-28.5 1.3-11 6-20.5 14-28.5l190-190-189-189c-8.7-8.7-13.7-18.5-15-29.5-1.3-11 1.3-20.2 8-27.5 28-36 60.3-68.7 97-98 8-6.7 17.5-9.3 28.5-8s20.5 6.3 28.5 15l190 181 189-181c8.7-8.7 18.5-13.7 29.5-15s20.2 1.3 27.5 8c36.7 28.7 69.3 61.3 98 98 6.7 7.3 9.3 16.5 8 27.5s-6.3 20.8-15 29.5L628 480z"/></svg>
