<svg xmlns:xlink="http://www.w3.org/1999/xlink" x="0px" y="0px" viewBox="0 0 960 960"><path d="M169.5,242.3c-2.5-10.2-2.5-20.4,0-30.8c2.5-10.4,7.5-19.4,15-26.9c7.5-7.8,16.5-12.8,26.9-15.2c10.4-2.4,20.7-2.4,30.8,0 c10.2,2.4,18.7,7.2,25.8,14.5l507.9,507.9c7.3,7.3,12.1,16,14.5,26.1c2.4,10.2,2.3,20.3-0.2,30.5c-2.5,10.2-7.5,19.1-15,26.9 c-7.5,7.5-16.4,12.6-26.7,15.2c-10.3,2.6-20.5,2.7-30.6,0.2c-10.2-2.5-19-7.4-26.5-14.7L183.8,268C176.7,261,172,252.4,169.5,242.3z M691.3,184.2c7.5-7.5,16.4-12.5,26.5-14.9c10.2-2.4,20.3-2.3,30.5,0.2c10.2,2.5,19.1,7.6,26.9,15.4c7.5,7.5,12.6,16.4,15.2,26.5 c2.6,10.2,2.7,20.3,0.2,30.5c-2.5,10.2-7.4,19-14.7,26.5L268,776c-7,7-15.6,11.8-25.8,14.3c-10.2,2.5-20.4,2.5-30.6,0 c-10.3-2.5-19.3-7.5-27.1-15c-7.5-7.5-12.5-16.5-15-26.9c-2.5-10.4-2.5-20.6,0-30.6c2.5-10,7.3-18.7,14.3-25.9L691.3,184.2z"/></svg>
