<svg xmlns="http://www.w3.org/2000/svg" viewBox="0 0 960 960"><path d="M850 408.5c33.3 28 60 61 80 99s30 76.3 30 115c0 64.7-25.3 124.8-76 180.5s-111 87.8-181 96.5c-68 7.3-142.7 11-224 11-80.7 0-155-3.7-223-11-70-8.7-130.2-40.8-180.5-96.5S0 687.2 0 622.5c0-37.3 9.3-74.8 28-112.5s44-70.5 76-98.5c-1.3-12-2-21-2-27 0-52 18.3-96.3 55-133s81-55 133-55c6 0 15 .7 27 2 26-43.3 62.5-79 109.5-107s96.2-42 147.5-42c79.3 0 146.2 29.7 200.5 89s81.5 130 81.5 212c0 20-2 39.3-6 58zm-350 370c6.7-4.7 20.5-15.8 41.5-33.5s50.5-46 88.5-85 69.7-77.5 95-115.5c6.7-11.3 7-22.3 1-33-5.3-11.3-14.7-17-28-17H586c-5.3-33.3-12.7-67.8-22-103.5s-16-56.8-20-63.5c-12-18.7-33.3-28-64-28-30 0-51 9.3-63 28-4.7 6-11.5 26.8-20.5 62.5s-16.2 70.5-21.5 104.5H263c-12.7 0-22 5.7-28 17-6 10.7-5.7 21.7 1 33 25.3 38 57 76.5 95 115.5s67.5 67.3 88.5 85 34.8 28.8 41.5 33.5c5.3 4.7 12 7 20 7s14.3-2.3 19-7z"/></svg>
