<svg xmlns="http://www.w3.org/2000/svg" xmlns:xlink="http://www.w3.org/1999/xlink" x="0px" y="0px" viewBox="0 0 960 960"><path d="M422.9,681.2l-304-311c-6.3-6.9-11.2-14.3-14.5-22.1c-3.3-7.9-5-16.3-5-25.4c0-13,3.1-24.7,9.3-35.4 c6.2-10.6,14.5-19,24.8-25.2c10.3-6.2,21.8-9.3,34.5-9.3c19.3,0,36.3,7.4,50.9,22.3l277.5,286.2h-31.8L741,275.1 c14.6-14.9,31.6-22.3,50.9-22.3c12.7,0,24.2,3.1,34.5,9.3c10.3,6.2,18.6,14.6,24.8,25.2s9.3,22.4,9.3,35.4 c0,18.5-6.5,34.2-19.4,47.1l-304,311.4c-8.5,8.8-17.4,15.3 26.7,19.4c-9.2,4.1-19.2,6.3-30,6.6C459.5,707.3,440.3,698.6,422.9,681.2z"/></svg>
