<svg xmlns="http://www.w3.org/2000/svg" viewBox="0 0 960 960"><path d="M386.6 262c0 51.9-18.2 96-54.5 132.3s-80.4 54.5-132.3 54.5-96-18.2-132.3-54.5S12.9 313.9 12.9 262s18.2-96 54.5-132.3 80.4-54.5 132.3-54.5 96 18.2 132.3 54.5 54.6 80.4 54.6 132.3zm401.9-150.8c9.1 18.2 7.5 37.3-4.9 57.4-41.5 62.3-100.1 150-175.6 263.2S468.8 640.2 417.2 717.4 338.9 834.8 337 838.1c-19.5 31.1-46.7 46.7-81.7 46.7-41.5 0-69.1-12-82.7-36-10.4-16.9-8.8-36 4.9-57.4 3.9-6.5 152.8-230 446.6-670.4 19.5-30.5 46.4-45.7 80.8-45.7 42-.1 69.9 11.9 83.6 35.9zm-28.3 773.6c-51.9 0-96-18.2-132.3-54.5-36.3-36.3-54.5-80.4-54.5-132.3 0-51.9 18.2-96 54.5-132.3 36.3-36.3 80.4-54.5 132.3-54.5s96 18.2 132.3 54.5C928.8 602 947 646.1 947 698c0 51.9-18.2 96-54.5 132.3-36.3 36.3-80.4 54.5-132.3 54.5z"/></svg>
