<svg xmlns="http://www.w3.org/2000/svg" viewBox="0 0 32 32"><path d="M29.84,30.43a25.91,25.91,0,0,1-3.19.55A91.09,91.09,0,0,1,16,31.5c-10.13,0-13.71-1-13.84-1.07a1,1,0,0,1-.71-1.24C2.1,26.13,3.79,24.5,6.1,23A16.29,16.29,0,0,1,8.41,22c1.57-.62,3.39-1.34,3.75-2.54A2.45,2.45,0,0,0,12,17.73a49.15,49.15,0,0,1-5.6-.85,1.06,1.06,0,0,1-.66-.46,1,1,0,0,1-.13-.81,22,22,0,0,0,.49-2.44C7.05,8.12,8.45.5,13.46.5A5.94,5.94,0,0,1,16,1.15,6.07,6.07,0,0,1,18.57.5c5,0,6.38,7.62,7.33,12.67.19,1,.36,1.82.49,2.44a1,1,0,0,1-.17.91c-.39.49-3.45.91-6.22,1.17a2.85,2.85,0,0,0-.16,1.73c.36,1.2,2.18,1.92,3.78,2.54A18.83,18.83,0,0,1,25.9,23c2.31,1.47,4,3.1,4.66,6.16a1.06,1.06,0,0,1-.72,1.24Z"/></svg>
