<svg xmlns="http://www.w3.org/2000/svg" viewBox="0 0 960 960"><path d="M821.4 43.3c10.4 2.6 18.8 8.2 25 16.6 6.2 8.5 9.3 18 9.3 28.4v548.3c0 28.1-19.9 67.2-59.7 117.5-39.8 50.3-84.9 95.1-135.1 134.6S571.4 948 543.3 948l-18.6 1c-8.5.7-23.5 1-45 1-117.5 0-240.9-10.8-370.1-32.3-10.4-2.6-19.3-8.2-26.4-16.6-7.2-8.5-10.8-18.3-10.8-29.4V88.3c0-11.1 3.4-20.9 10.3-29.4s15.8-14 26.9-16.6C238.8 20.8 362.2 10 479.7 10c66.6 0 128.3 2.8 185.1 8.3 56.8 5.5 95.8 10.6 117 15.2 21.2 4.6 34.4 7.8 39.6 9.8zM699 668c17 0 31.7-6.2 44.1-18.6 12.4-12.4 18.6-27.1 18.6-44.1H605c-24.2 0-45.9 9.6-65.1 28.9s-28.9 41-28.9 65.1V856c16.3 0 30.8-6.2 43.6-18.6 12.7-12.4 19.1-27.1 19.1-44.1v-94c0-6.5 3.6-13.4 10.8-20.6s14-10.8 20.6-10.8H699z"/></svg>
