<svg xmlns="http://www.w3.org/2000/svg" viewBox="0 0 24 24"><path class="st0" d="M0,0h24v24H0V0z" fill="none"/><path d="M5,16.7c0,0.4,0.3,0.8,0.8,0.8h3.9v-1.6H5.8C5.3,15.9,5,16.2,5,16.7z M5,7.3c0,0.4,0.3,0.8,0.8,0.8h7V6.6h-7 C5.3,6.6,5,6.9,5,7.3z M12.8,18.2v-0.8h5.4c0.4,0,0.8-0.4,0.8-0.8c0-0.4-0.4-0.8-0.8-0.8h-5.4v-0.8c0-0.4-0.3-0.8-0.8-0.8 s-0.8,0.4-0.8,0.8v3.1c0,0.4,0.3,0.8,0.8,0.8S12.8,18.6,12.8,18.2z M8.1,10.4v0.8H5.8C5.3,11.2,5,11.6,5,12s0.3,0.8,0.8,0.8h2.3v0.8 c0,0.4,0.4,0.8,0.8,0.8c0.4,0,0.8-0.3,0.8-0.8v-3.1c0-0.4-0.4-0.8-0.8-0.8C8.5,9.7,8.1,10,8.1,10.4z M19,12c0-0.4-0.4-0.8-0.8-0.8 h-7v1.6h7C18.6,12.8,19,12.4,19,12z M15.1,9.7c0.4,0,0.8-0.4,0.8-0.8V8.1h2.3c0.4,0,0.8-0.3,0.8-0.8c0-0.4-0.4-0.8-0.8-0.8h-2.3V5.8 c0-0.4-0.4-0.8-0.8-0.8c-0.4,0-0.8,0.3-0.8,0.8v3.1C14.3,9.3,14.7,9.7,15.1,9.7z"/></svg>
