<svg xmlns="http://www.w3.org/2000/svg" viewBox="0 0 32 32"><path d="M6.7,0.3c0.6,0,1,0.2,1.5,0.6c0.4,0.4,0.6,0.9,0.6,1.5c0,0.5-0.2,1-0.6,1.4C7.7,4.2,7.2,4.4,6.7,4.5v27H2.5v-27 c-0.6,0-1-0.2-1.5-0.6C0.7,3.5,0.5,3,0.5,2.4c0-0.6,0.2-1,0.6-1.5S2,0.3,2.5,0.3H6.7z M31.6,25.5c-0.1,0.5-0.3,0.8-0.8,0.9 c-1.5,0.5-2.9,0.7-4.4,0.7c-0.8,0-1.5-0.1-2-0.2c-0.8-0.1-1.5-0.4-2.1-0.9c-0.7-0.5-1.2-0.9-1.7-1.4c-0.4-0.5-1-1-1.7-1.4 c-0.7-0.5-1.4-0.8-2.1-1c-1.1-0.2-2.3-0.3-3.5-0.2c-1.2,0.1-2.3,0.2-3.2,0.4l-1.4,0.3V5.5c1.9-0.5,3.7-0.8,5.6-0.8 c0.9,0,1.7,0,2.5,0.3c0.9,0.2,1.8,0.7,2.6,1.3c0.8,0.6,1.6,1.2,2.4,1.7c0.8,0.6,1.7,0.9,2.6,1.1c0.5,0.1,1,0.2,1.6,0.2 c0.9,0,1.8,0,2.6-0.2c0,0,0.4-0.1,1.1-0.2c0.6-0.1,0.9-0.2,0.9-0.2c0.3,0,0.5,0.1,0.7,0.3c0.2,0.2,0.3,0.4,0.3,0.7L31.6,25.5	L31.6,25.5z"/></svg>
