<svg xmlns="http://www.w3.org/2000/svg" viewBox="0 0 960 960"><path d="M608 32h256c17.3 0 32.3 6.3 45 19s19 27.7 19 45v256c0 17.3-6.3 32.3-19 45s-27.7 19-45 19H608c-17.3 0-32.3-6.3-45-19s-19-27.7-19-45V96c0-17.3 6.3-32.3 19-45s27.7-19 45-19zM32 352V96c0-17.3 6.3-32.3 19-45s27.7-19 45-19h256c17.3 0 32.3 6.3 45 19s19 27.7 19 45v256c0 17.3-6.3 32.3-19 45s-27.7 19-45 19H96c-17.3 0-32.3-6.3-45-19s-19-27.7-19-45zm832 576H608c-17.3 0-32.3-6.3-45-19s-19-27.7-19-45V608c0-17.3 6.3-32.3 19-45s27.7-19 45-19h256c17.3 0 32.3 6.3 45 19s19 27.7 19 45v256c0 17.3-6.3 32.3-19 45s-27.7 19-45 19zm-512 0H96c-17.3 0-32.3-6.3-45-19s-19-27.7-19-45V608c0-17.3 6.3-32.3 19-45s27.7-19 45-19h256c17.3 0 32.3 6.3 45 19s19 27.7 19 45v256c0 17.3-6.3 32.3-19 45s-27.7 19-45 19z"/></svg>
