<svg xmlns="http://www.w3.org/2000/svg" viewBox="0 0 32 32"><title>help-updated</title><path d="M16,.47a15.05,15.05,0,0,1,7.78,2.09,15.37,15.37,0,0,1,5.66,5.66A15.05,15.05,0,0,1,31.53,16a15.05,15.05,0,0,1-2.09,7.78,15.37,15.37,0,0,1-5.66,5.66A15.05,15.05,0,0,1,16,31.53a15.05,15.05,0,0,1-7.78-2.09,15.37,15.37,0,0,1-5.66-5.66A15.05,15.05,0,0,1,.47,16,15.05,15.05,0,0,1,2.56,8.22,15.37,15.37,0,0,1,8.22,2.56,15.05,15.05,0,0,1,16,.47ZM15,20.14h2.1a1,1,0,0,0,.73-.32,1.09,1.09,0,0,0,.31-.78,4.28,4.28,0,0,1,1.55-2.13,15.21,15.21,0,0,0,2.85-3.08,4.62,4.62,0,0,0,.74-2.42A5.58,5.58,0,0,0,21.4,7.23a6.76,6.76,0,0,0-4.85-1.68A6.45,6.45,0,0,0,12.25,7a7.39,7.39,0,0,0-2.37,3.41l-.06.2a.28.28,0,0,1,0,.11.81.81,0,0,0,0,.15.91.91,0,0,0,.29.69,1,1,0,0,0,.74.28H13a.92.92,0,0,0,1-.78,2.7,2.7,0,0,1,1-1.42A2.65,2.65,0,0,1,16.71,9a2.88,2.88,0,0,1,2,.74,2.17,2.17,0,0,1,.71,1.52A2,2,0,0,1,19,12.6,11.06,11.06,0,0,1,17.6,14l-1.68,1.42A6.27,6.27,0,0,0,14.59,17,4.28,4.28,0,0,0,14,19.11a1,1,0,0,0,.31.72,1,1,0,0,0,.76.31Zm1,7.54A2.43,2.43,0,1,0,14.35,27,2.27,2.27,0,0,0,16,27.68Z"/></svg>