<svg xmlns="http://www.w3.org/2000/svg" viewBox="0 0 960 960"><path d="M480 912.8c-90 0-181.7-9.3-275-28-22-5.3-34.7-19-38-41l-40-283H48c-18.7 0-33-8.7-43-26-8.7-18-7.3-34.3 4-49 30.7-44 66.7-88.7 108-134s79.5-84 114.5-116 70.7-62.7 107-92 62.7-49.8 79-61.5 28.2-20.2 35.5-25.5c18-12.7 36-12.7 54 0 42.7 28 97.7 71 165 129v-105c0-9.3 3-17 9-23s13.7-9 23-9h96c9.3 0 17 3 23 9s9 13.7 9 23v259c42.7 44.7 81 91.3 115 140 8.7 10 13 21 13 33 0 13.3-4.7 24.7-14 34s-20.7 14-34 14h-79l-41 283c-.7 10-4.5 18.7-11.5 26s-15.5 12.3-25.5 15c-94.7 18.6-186.3 28-275 28zm124-158l8-128c0-9.3-3-17.3-9-24-6.7-6.7-14.3-10-23-10H380c-8.7 0-16.3 3.3-23 10-6 6.7-9 14.7-9 24l8 128c1.3 17.3 10.7 27.3 28 30 35.3 3.3 67.3 5 96 5s60.7-1.7 96-5c17.3-2.7 26.7-12.7 28-30z"/></svg>
