<svg xmlns="http://www.w3.org/2000/svg" xmlns:xlink="http://www.w3.org/1999/xlink" x="0px" y="0px" viewBox="0 0 960 960"><path d="M278.8,422.9l311-304c6.9-6.3,14.3-11.2,22.1-14.5c7.9-3.3,16.3-5,25.4-5c13,0,24.7,3.1,35.4,9.3 c10.6,6.2,19,14.5,25.2,24.8s9.3,21.8,9.3,34.5c0,19.3-7.4,36.3-22.3,50.9L398.7,496.5v-31.8L684.9,741 c14.9,14.6,22.3,31.6,22.3,50.9c0,12.7-3.1,24.2-9.3,34.5s-14.6,18.6-25.2,24.8c-10.6,6.2-22.4,9.3-35.4,9.3 c-18.5,0-34.2-6.5-47.1-19.4l-311.4-304c-8.8-8.5-15.3-17.4-19.4-26.7c-4.1-9.2-6.3-19.2-6.6-30 C252.7,459.5,261.4,440.3,278.8,422.9z"/></svg>
