<svg width="21" height="10" viewBox="0 0 21 10" fill="none" xmlns="http://www.w3.org/2000/svg"><path d="M15.8516 0H12.8516C12.3016 0 11.8516 0.45 11.8516 1C11.8516 1.55 12.3016 2 12.8516 2H15.8516C17.5016 2 18.8516 3.35 18.8516 5C18.8516 6.65 17.5016 8 15.8516 8H12.8516C12.3016 8 11.8516 8.45 11.8516 9C11.8516 9.55 12.3016 10 12.8516 10H15.8516C18.6116 10 20.8516 7.76 20.8516 5C20.8516 2.24 18.6116 0 15.8516 0ZM6.85156 5C6.85156 5.55 7.30156 6 7.85156 6H13.8516C14.4016 6 14.8516 5.55 14.8516 5C14.8516 4.45 14.4016 4 13.8516 4H7.85156C7.30156 4 6.85156 4.45 6.85156 5ZM8.85156 8H5.85156C4.20156 8 2.85156 6.65 2.85156 5C2.85156 3.35 4.20156 2 5.85156 2H8.85156C9.40156 2 9.85156 1.55 9.85156 1C9.85156 0.45 9.40156 0 8.85156 0H5.85156C3.09156 0 0.851562 2.24 0.851562 5C0.851562 7.76 3.09156 10 5.85156 10H8.85156C9.40156 10 9.85156 9.55 9.85156 9C9.85156 8.45 9.40156 8 8.85156 8Z" fill="#0F52BA"/></svg>
