<svg xmlns="http://www.w3.org/2000/svg" viewBox="0 0 960 960"><path d="M480,9Q622.35,9,724,115T825.57,370.29q0,75.59-30.43,160.51T721.51,682.48q-43.2,66.76-86.39,123.21t-73.63,86.88L531.05,923q-32.4,28.47-53.5,28T426,923q-11.78-11.78-31.42-32.4t-70.19-83.45A1182.49,1182.49,0,0,1,235.55,681.5q-38.29-62.83-69.7-149.22t-31.42-162Q134.43,221.06,236,115T480,9Zm0,508.54q67.74,0,115.85-47.61T644,354.58q0-67.74-48.11-115.85T480,190.63q-67.74,0-115.35,48.11T317,354.58q0,67.74,47.61,115.35T480,517.55Z"/></svg>
