<svg xmlns="http://www.w3.org/2000/svg" viewBox="0 0 960 960"><path d="M611 600l317-243v446c0 8-2.7 14.8-8 20.5s-12 9.2-20 10.5c-138 20-278 30-420 30-141.3 0-281.7-10-421-30-7.3-1.3-13.7-4.8-19-10.5S32 811 32 803V357l317 243c35.3 26.7 79 40 131 40s95.7-13.3 131-40zM67 256c-18.7-18-30.3-35.7-35-53v-46c0-8 2.7-14.8 8-20.5s11.7-9.2 19-10.5c138.7-20 279-30 421-30s282 10 420 30c8 1.3 14.7 4.8 20 10.5s8 12.5 8 20.5v46c-4.7 17.3-16.3 35-35 53L552 514c-18.7 14.7-42.7 22-72 22s-53.3-7.3-72-22L67 256z"/></svg>
