<svg xmlns="http://www.w3.org/2000/svg" viewBox="0 0 960 960"><path d="M944 384.3c0 37.3-12.7 72-38 104s-55.3 56-90 72v-352c34.7 16 64.7 40 90 72s38 66.7 38 104zm-211-366c12.7 5.3 19 13 19 23v686c0 10-6.3 17.7-19 23-5.3 1.3-9.3 2-12 2-9.3 0-17.3-3.3-24-10l-13-13-34-26.5-54.5-35-69-28-83.5-14.5c29.3 117.3 46.7 185.3 52 204 7.3 31.3 2 58.7-16 82-16.7 22-39.3 33-68 33-44 0-76-21.7-96-65-52.7-123.3-90.7-212.7-114-268-59.3-11.3-105-34.3-137-69s-48-87.3-48-158c0-26 2.5-49.7 7.5-71s11.2-40 18.5-56 18.3-30 33-42 28-22 40-30 29.5-14.7 52.5-20 42-9.3 57-12 37-4.7 66-6 51.7-2.2 68-2.5 40.8-.5 73.5-.5c28.7 0 57.5-4 86.5-12s53.7-17.7 74-29 38.7-23 55-35 28.5-21.7 36.5-29 12.3-11.7 13-13c10.7-10.6 22.7-13.3 36-8z"/></svg>
