<svg xmlns="http://www.w3.org/2000/svg" viewBox="0 0 32 32"><title>merge-updated</title><path d="M16.66,24.43a10.26,10.26,0,0,1-3.9,3.11,13.59,13.59,0,0,1-4.69.67h-5a2.2,2.2,0,0,1-1.64-.71,2.37,2.37,0,0,1-.68-1.7,2.3,2.3,0,0,1,.49-1.44,2.08,2.08,0,0,1,1.26-.79l0,0q4.06-.54,6.2-.93A4.16,4.16,0,0,0,11.6,20.9q.26-.25.42-.45l3-3.69q-2.61-4.55-3.28-5.56a3.78,3.78,0,0,0-.54-.67,2.53,2.53,0,0,0-.54-.44L10.43,10l-.1-.07-.16-.06L10,9.77a1.14,1.14,0,0,0-.44-.19,3,3,0,0,0-.89-.26l-6.24-1a1.89,1.89,0,0,1-.89-.45l-.06-.06-.11-.1L1.3,7.67v0l0,0A2,2,0,0,1,.76,6.36a1.34,1.34,0,0,1,0-.22,2.18,2.18,0,0,1,.68-1.65,2.23,2.23,0,0,1,1.64-.67l5.59,0h1.59A10,10,0,0,1,11.84,4a5.77,5.77,0,0,1,1.76.62A8.6,8.6,0,0,1,15.24,5.9,10.28,10.28,0,0,1,16.91,8q1.34,2.13,3.53,6h3.69V10.88a.87.87,0,0,1,.61-.89,1,1,0,0,1,1.11.16,34.08,34.08,0,0,1,3.36,3.71,20,20,0,0,1,1.95,2.75.8.8,0,0,1,0,.82,22.64,22.64,0,0,1-1.94,2.72,32.4,32.4,0,0,1-3.37,3.74,1.08,1.08,0,0,1-.7.26,1,1,0,0,1-.41-.1.9.9,0,0,1-.61-.92V20.07h-4q-1.85,2.4-3.5,4.36Z"/></svg>