<svg xmlns="http://www.w3.org/2000/svg" viewBox="0 0 960 960"><path d="M913.1 616.6c5.2 65.2-11.6 123.2-50.4 173.9-38.7 50.7-91.7 89.2-158.9 115.3S562 945.1 480 945.1 323.4 932 256.2 905.8 136 841.2 97.3 790.5c-38.8-50.7-55.5-108.7-50.4-173.9 5.8-74.3 36.8-142.4 93-204.4s124.7-113.7 205.4-155c-49.1-78.8-84.6-132.7-106.6-161.8-7.1-8.4-8.7-17.8-4.8-28.1 3.2-10.3 10-17.1 20.3-20.3 73.6-21.3 148.9-32 225.7-32S632 25.7 705.6 47c10.3 3.2 17.1 10 20.3 20.3 3.9 10.3 2.3 19.7-4.8 28.1-43.9 58.8-81.4 112.7-112.4 161.8 82 42 151.8 94 209.3 156 57.6 62 89.3 129.8 95.1 203.4zM518.8 760c94.3-9 141.5-43 141.5-101.7 0-14.9-3.2-27.8-9.7-38.8-6.5-11-14-20-22.8-27.1-8.7-7.1-21.3-13.4-37.8-18.9-16.5-5.5-31.2-9.7-44.1-12.6s-30-6.3-51.4-10.2c-27.8-5.2-45.4-9.7-52.8-13.6-7.4-3.9-11.1-11.3-11.1-22.3 0-20 19.1-30 57.2-30 27.1 0 51.4 2.9 72.7 8.7 20.7 4.5 36.5 1 47.5-10.7l15.5-19.4c4.5-5.2 5.3-10.3 2.4-15.5-2.9-5.2-8.6-9-17-11.6-21.3-6.5-46.8-10.7-76.5-12.6v-46.5c0-5.2-3.4-9.9-10.2-14-6.8-4.2-14.7-6.3-23.7-6.3h-27.1c-9 0-17 2.1-23.7 6.3-6.8 4.2-10.2 8.9-10.2 14v46.5c-87.8 8.4-131.8 40-131.8 94.9 0 31 12.9 53.8 38.8 68.3 25.8 14.5 64.6 26.3 116.3 35.4 29.1 5.2 48.3 10.2 57.6 15 9.4 4.8 14 13.1 14 24.7 0 12.3-5.5 21.3-16.5 27.1-11 5.8-30 8.7-57.2 8.7-33.6 0-67.5-5.2-101.7-15.5-8.4-2.6-17-2.9-25.7-1s-14.7 5.5-17.9 10.7l-15.5 22.3c-3.9 4.5-4.4 9.5-1.5 15 2.9 5.5 8.6 9.5 17 12.1 25.8 8.4 63.3 14.9 112.4 19.4v38.8c0 5.8 3.2 10.7 9.7 14.5s14.2 5.8 23.3 5.8h27.1c9 0 16.8-1.9 23.3-5.8s9.7-8.7 9.7-14.5V760z"/></svg>
