<svg xmlns="http://www.w3.org/2000/svg" viewBox="0 0 960 960"><path d="M891.6 680c18.1 14.9 25.6 34 22.3 57.3-3.2 23.3-15.2 39.5-35.9 48.5l-4.9 1.9c-3.2 1.3-7.3 2.8-12.1 4.4-4.9 1.6-11 3.7-18.4 6.3-7.4 2.6-15.7 5.2-24.8 7.8-9.1 2.6-19.1 5.3-30.1 8.3-11 2.9-23 5.8-35.9 8.7-12.9 2.9-26.5 5.8-40.8 8.7-14.2 2.9-29.8 5.5-46.6 7.8s-34 4.4-51.5 6.3c-8.4 29.1-24.9 53.1-49.5 71.8S511.1 946 480 946s-58.9-9.4-83.5-28.2-41.1-42.7-49.5-71.8c-101.6-10.4-189.6-30.4-264.1-60.2-22-9.7-34.6-26.2-37.9-49.5-1.9-23.3 5.8-42.1 23.3-56.3 3.2-1.9 8.7-6.6 16.5-14.1 7.8-7.4 18.8-20.9 33-40.3s27.5-40.8 39.8-64.1c12.3-23.3 23-53.4 32-90.3s13.6-75.4 13.6-115.5c0-54.4 5.7-102.3 17-143.7 11.3-41.4 25.9-74.4 43.7-99 17.8-24.6 39.2-44.5 64.1-59.7 24.9-15.2 49.5-25.6 73.8-31.1 24.3-5.5 50.3-8.3 78.2-8.3 27.8 0 53.9 2.8 78.2 8.3s48.9 15.9 73.8 31.1c24.9 15.2 46.3 35.1 64.1 59.7s32.4 57.6 43.7 99 17 89.3 17 143.7c0 40.1 4.5 78.6 13.6 115.5s19.7 67.1 32 90.8 25.6 45 39.8 64.1 25.2 32.4 33 39.8c7.7 7.5 13.2 12.1 16.4 14.1z"/></svg>
