<svg xmlns="http://www.w3.org/2000/svg" viewBox="0 0 960 960"><path d="M919 94c11.3 1.3 21 6.8 29 16.5s12 20.5 12 32.5v673c0 12-4 22.7-12 32s-17.7 15-29 17c-144 20.7-290.3 31-439 31s-295-10.3-439-31c-11.3-2-21-7.7-29-17S0 828 0 816V143c0-12 4-22.8 12-32.5S29.7 95.3 41 94c141.3-20 287.7-30 439-30 152 0 298.3 10 439 30zm-55 671V184c-125.3-16.7-252.3-25-381-25-127.3 0-256.3 8.3-387 25v590c22 2.7 51.7 6 89 10l405-239c10.7-6.7 23.3-10 38-10 23.3 0 42.7 8.7 58 26l178 204zM416 416c0-26.7-9.3-49.3-28-68s-41.3-28-68-28-49.3 9.3-68 28-28 41.3-28 68 9.3 49.3 28 68 41.3 28 68 28 49.3-9.3 68-28 28-41.3 28-68z"/></svg>
