<svg xmlns="http://www.w3.org/2000/svg" xmlns:xlink="http://www.w3.org/1999/xlink" x="0px" y="0px" viewBox="0 0 960 960"><path d="M101.9,531.7c-14.4-14.2-21.6-31.4-21.6-51.5c0-20.4,7.2-37.8,21.6-52.2c14.4-14.4,31.6-21.6,51.7-21.6h652.7 c20.1,0,37.3,7.2,51.7,21.6s21.6,31.8,21.6,52.2c0,20.1-7.2,37.3-21.6,51.5c-14.4,14.2-31.6,21.3-51.7,21.3H153.7 C133.6,553.1,116.3,545.9,101.9,531.7z M428,858.1c-14.4-14.4-21.6-31.6-21.6-51.7V153.7c0-20.1,7.2-37.3,21.6-51.7 s31.6-21.6,51.7-21.6c20.4,0,37.8,7.2,52.2,21.6s21.6,31.6,21.6,51.7v652.7c0,20.1-7.2,37.3-21.6,51.7 c-14.4,14.4-31.8,21.6 52.2,21.6C459.7,879.6,442.4,872.4,428,858.1z"/></svg>
