<svg xmlns="http://www.w3.org/2000/svg" viewBox="0 0 960 960"><path d="M860 407c5.3 48.7 5.3 97.7 0 147-.7 10.7-5 19.7-13 27s-17.7 11-29 11H576v242c0 10.7-3.7 20-11 28s-16.3 12.7-27 14c-49.3 5.3-98.7 5.3-148 0-10.7-1.3-19.7-6-27-14s-11-17.3-11-28V592H111c-11.3 0-21-3.5-29-10.5S69.3 565.3 68 554c-5.3-49.3-5.3-98.3 0-147 1.3-11.3 6-20.7 14-28s17.7-11 29-11h241V127c0-11.3 3.7-21 11-29s16.3-12.7 27-14c49.3-5.3 98.7-5.3 148 0 10.7 1.3 19.7 6 27 14s11 17.7 11 29v241h242c10.7 0 20 3.7 28 11s12.7 16.7 14 28z"/></svg>
