<svg xmlns="http://www.w3.org/2000/svg" viewBox="0 0 960 960"><path d="M807.7 443.4c14.9 15.5 18.1 33.3 9.7 53.4-7.8 19.4-22.3 29.8-43.7 31.1l-188.3 10.7c25.9 72.5 49.5 142.2 70.9 209.2s32.7 106.6 34 118.9c1.9 18.1-.3 32.5-6.8 43.2-6.5 10.7-17.8 19.9-34 27.7-14.9 7.1-28 9.9-39.3 8.3-11.3-1.6-25.4-8.6-42.2-20.9-11-9.1-35.9-41.4-74.7-97.1C454.4 772.1 413.7 710 371 641.4L248.7 778.2c-9.7 11-22.3 16.5-37.9 16.5-6.5 0-11.3-.6-14.6-1.9-20.7-5.2-32.7-18.8-35.9-40.8 0-.6-.5-4.7-1.5-12.1-1-7.4-2.1-16.7-3.4-27.7s-2.8-24.3-4.4-39.8c-1.6-15.5-3.2-33-4.9-52.4-1.6-19.4-3.1-39.8-4.4-61.1s-2.3-44.6-2.9-69.9c-.6-25.2-1-50.1-1-74.7 0-137.8 12-258.2 35.9-361.1 3.2-14.9 12.3-26.2 27.2-34 14.9-7.1 29.8-7.1 44.6 0 181.4 89.3 368.8 230.7 562.2 424.2z"/></svg>
