<svg xmlns="http://www.w3.org/2000/svg" viewBox="0 0 960 960"><path d="M751 879.6c-57.3 0-106.2-20.3-146.5-61S544 729 544 671.6v-51c-17.3-20.7-38.3-31-63-31-27.3 0-49 10.7-65 32v50c0 57.3-20.2 106.3-60.5 147s-89.2 61-146.5 61c-56 0-104-19.5-144-58.5S4 734.6 2 678.6c-.7-3.3-1.2-8.3-1.5-15s0-21 1-43 3-44.7 6-68 9-53 18-89S46 391.3 60 354.6c36-94.7 80.3-169 133-223 35.3-36.7 72.3-53.7 111-51 29.3 2 55.3 15.7 78 41s34 53.7 34 85v19c22-9.3 43.7-14 65-14 20.7 0 41.7 4.3 63 13v-18c0-31.3 11.3-59.7 34-85s48.7-39 78-41c38.7-2.7 75.7 14.3 111 51 52.7 54 97 128.3 133 223 22 58 37.8 114 47.5 168s13.8 93.7 12.5 119l-2 37c-2 56-23 103.5-63 142.5s-88 58.5-144 58.5zm0-91c32.7 0 60.5-11.3 83.5-34s34.5-50.3 34.5-83-11.5-60.5-34.5-83.5-50.8-34.5-83.5-34.5-60.3 11.5-83 34.5-34 50.8-34 83.5 11.3 60.3 34 83 50.3 34 83 34zm-542 0c32.7 0 60.3-11.3 83-34s34-50.3 34-83-11.3-60.5-34-83.5-50.3-34.5-83-34.5-60.5 11.5-83.5 34.5S91 639 91 671.6s11.5 60.3 34.5 83 50.8 34 83.5 34z"/></svg>
