<svg xmlns="http://www.w3.org/2000/svg" viewBox="0 0 960 960"><path d="M480 14.4c84.1 0 161.8 20.9 233.3 62.6s128 98.3 169.7 169.7c41.7 71.5 62.6 149.2 62.6 233.3S924.7 641.8 883 713.3s-98.3 128-169.7 169.7c-71.5 41.7-149.2 62.6-233.3 62.6S318.2 924.7 246.7 883 118.7 784.7 77 713.3 14.4 564.1 14.4 480 35.3 318.2 77 246.7s98.3-128 169.7-169.7S395.9 14.4 480 14.4zm306.5 675.1c44-64.7 66-134.5 66-209.5 0-100.9-36.5-188.5-109.6-262.9-23.3-22.6-48.2-41.4-74.7-56.3 0 .6-1.5 3.2-4.4 7.8s-4 7.4-3.4 8.7c.6 7.1 2.1 13.6 4.4 19.4 2.3 5.8 3.6 9.5 3.9 11.2.3 1.6-1.1 6.6-4.4 15-7.1 15.5-8.7 35.6-4.8 60.1 1.3 9.7 15.7 14.9 43.2 15.5 27.5.6 42.5 3.2 45.1 7.8 0 5.2-2.7 9.9-8.2 14.1-5.5 4.2-12.3 7.6-20.4 10.2-8.1 2.6-12.8 4.2-14.1 4.8-23.3 12.3-36.9 24.2-40.7 35.9-6.5 17.5-7.1 42.4-1.9 74.7 2.6 12.9 8.2 24.4 17 34.4 8.7 10 18.9 16.3 30.6 18.9 26.5 5.8 45.9 6.5 58.2 1.9 2.6 0 4.5-.2 5.8-.5 1.3-.3 2.6.5 3.9 2.4 1.3 1.9 2.1 3.2 2.4 3.9s1 2.3 1.9 4.8c1 2.6 1.5 4.2 1.5 4.8 2.6 8.4 4.8 19.7 6.8 33.9 1.9 14.2 1 27.2-2.9 38.8-4.5 8.4-8.1 22.6-10.7 42.7-2.6 20-2.6 34.6 0 43.6.4 3.6 3.7 8.1 9.5 13.9zM379.1 801c2.6 11.6 8.6 19.9 17.9 24.7 9.4 4.8 25.4 2.7 48-6.3 7.8-3.9 17.1-8.2 28.1-13.1s18.4-8.4 22.3-10.7c3.9-2.3 8.1-5.7 12.6-10.2s8.1-10.3 10.7-17.5c1.9-5.2 4-9.7 6.3-13.6 2.3-3.9 5.3-7.3 9.2-10.2s6.6-5 8.2-6.3c1.6-1.3 5.3-3.4 11.2-6.3l10.7-5.3c11-5.8 19.1-11.8 24.2-17.9s9.9-14.1 14.1-23.8c4.2-9.7 7.6-16.8 10.2-21.3 13.6-21.3 7.8-44.6-17.5-69.8-10.3-10.3-37.5-22.6-81.5-36.9-15.5-23.3-29.1-35.9-40.7-37.8-3.9-.6-9.9-1.5-17.9-2.4-8.1-1-15.5-2.1-22.3-3.4s-13.4-3.6-19.9-6.8c-3.9-1.9-8.2-4.4-13.1-7.3s-8.4-5-10.7-6.3c-2.3-1.3-6.3-2.4-12.1-3.4s-12.6-1.5-20.4-1.5c-10.3 0-17.8-2.1-22.3-6.3-4.5-4.2-6.6-9.9-6.3-17 .3-7.1.8-14.9 1.5-23.3.6-7.1-.5-13.3-3.4-18.4-2.9-5.2-7.1-10-12.6-14.5s-9.2-8.1-11.2-10.7c-7.8-9.1-18.1-9.1-31 0-2.6 1.9-5.8 6.5-9.7 13.6-3.9 7.1-7.4 10.8-10.7 11.2-3.2.3-10.7-2.4-22.3-8.2-16.2-11.6-18.4-28.5-6.8-50.4 11.6-22 30.1-34.3 55.3-36.9 4.5-.6 12.3-1.6 23.3-2.9 11-1.3 18.8-2.1 23.3-2.4s10.7-.2 18.4.5c7.8.6 13.6 2.3 17.5 4.8s7.8 6.8 11.6 12.6c3.9 5.8 6.8 12.9 8.7 21.3 1.9 11 8.4 15.8 19.4 14.5 15.5-7.8 24.2-23.6 26.2-47.5 0-12.3-4.8-26.7-14.5-43.2s-14.5-26.3-14.5-29.6c0-31.7 21-55 63-69.8 18.1-6.5 46.6-30.4 85.4-71.8-9.7-2.6-19.9-4.5-30.6-5.8-10.7-1.3-18.9-1.9-24.7-1.9H480c-100.9 0-188.5 37.2-262.9 111.5-49.1 49.1-81.8 107.7-98 175.6 18.1 29.7 33.3 49.5 45.6 59.2 14.2 11.6 32.7 19.7 55.3 24.2 49.1 10.3 91.8 35.6 128 75.7-.6 1.9-1.8 4.4-3.4 7.3s-4.4 9.1-8.2 18.4c-3.9 9.4-7.1 18.4-9.7 27.2-2.6 8.7-4.5 18.9-5.8 30.6-1.3 11.6-1.1 22.1.5 31.5 1.6 9.4 5.5 18.4 11.6 27.2 6.1 8.7 14.7 15.7 25.7 20.9 9.7 3.9 16.8 8.1 21.3 12.6s6.8 8.1 6.8 10.7v2.9c-.6 3.2-1.6 7.4-2.9 12.6-1.3 5.2-2.7 13.1-4.4 23.8s-1.7 18.5-.4 23.6z"/></svg>
