<svg xmlns="http://www.w3.org/2000/svg" viewBox="0 0 32 32"><title>retweet-updated</title><path d="M15.18,5.84A22.54,22.54,0,0,1,20,5.43q1.13,0,2.31.06c.79,0,1.38.08,1.78.13l.63.09a2.1,2.1,0,0,1,1.32.66,2.12,2.12,0,0,1,.6,1.32l0,.63a70.4,70.4,0,0,1,.38,7.18l0,2h3.17c.42,0,.68.14.79.41a.84.84,0,0,1-.13,1,34.51,34.51,0,0,1-3.73,3.54,20.11,20.11,0,0,1-2.72,2,.89.89,0,0,1-.78,0,19.63,19.63,0,0,1-2.71-2,35.18,35.18,0,0,1-3.71-3.54.91.91,0,0,1-.16-.89.86.86,0,0,1,.82-.5H21v-7L15,8.64A1.29,1.29,0,0,1,14.16,8a1.48,1.48,0,0,1-.11-1.11,1.32,1.32,0,0,1,1.13-1Zm1.64,20.32a22.54,22.54,0,0,1-4.85.41q-1.12,0-2.31-.06c-.79,0-1.38-.08-1.78-.13l-.63-.09a2.13,2.13,0,0,1-1.32-.65,2.05,2.05,0,0,1-.6-1.33l0-.63a70.4,70.4,0,0,1-.38-7.18l0-2H1.77A.79.79,0,0,1,1,14.08a1,1,0,0,1,.15-1A35.47,35.47,0,0,1,4.84,9.56a21.54,21.54,0,0,1,2.72-2,.91.91,0,0,1,.79,0,20.29,20.29,0,0,1,2.71,2,36.18,36.18,0,0,1,3.71,3.54.79.79,0,0,1,.13.88.76.76,0,0,1-.79.51H11v7l6,1.85a1.34,1.34,0,0,1,.85.69A1.44,1.44,0,0,1,18,25.16a1.34,1.34,0,0,1-1.13,1Z"/></svg>