<svg xmlns="http://www.w3.org/2000/svg" xmlns:xlink="http://www.w3.org/1999/xlink" x="0px" y="0px" viewBox="0 0 960 960" style="enable-background:new 0 0 960 960;" xml:space="preserve"><path d="M707.3,480.4c-0.3,10.8-2.5,20.7-6.6,30c-4.1,9.2-10.6,18.1-19.4,26.7l-311.4,304c-13,13-28.7,19.4-47.1,19.4 c-13,0-24.7-3.1-35.4-9.3c-10.6-6.2-19-14.5-25.2-24.8c-6.2-10.3-9.3-21.9-9.3-34.5c0-19.3,7.4-36.3,22.3-50.9l286.2-276.3v31.8 L275.1,219c-14.9-14.6-22.3-31.6-22.3-50.9c0-12.7,3.1-24.2,9.3-34.5c6.2 10.3,14.6-18.6,25.2-24.8c10.6-6.2,22.4-9.3,35.4-9.3 c9.1,0,17.6,1.7,25.4,5c7.9,3.3,15.2,8.1,22.1,14.5l311,304C698.6,440.3,707.3,459.5,707.3,480.4z"/></svg>
