<svg xmlns="http://www.w3.org/2000/svg" viewBox="0 0 960 960"><path d="M959 714c2 8 .7 16-4 24-5.3 7.3-12.3 11.7-21 13-9.3 4.7-66.7 8.3-172 11-28.7-60.7-73.3-109.7-134-147-17.3-10-39-19.7-65-29-6.7-3.3-12-5.7-16-7 31.3-49.3 52.3-97 63-143s13.5-84.3 8.5-115-15.2-58.3-30.5-83c-28-47.3-63.3-80.7-106-100 18.7-24 37.2-41.7 55.5-53S579 68 607 68c33.3 0 63.7 7.7 91 23s49.3 36.7 66 64c43.3 71.3 32.3 157.7-33 259-20 28.7-27.7 50.7-23 66 2 7.3 8 14.5 18 21.5s18.7 12.2 26 15.5 19.3 8.3 36 15c26 10.7 43.7 18.7 53 24 64.7 39.3 104 92 118 158zM352 892c-70 0-132-1-186-3s-90.2-4-108.5-6-28.8-3.3-31.5-4c-8.7-.7-15.7-5-21-13-4.7-6.7-6-14.7-4-24 14-66 53-118.7 117-158 8-4.7 25.7-12.7 53-24 16.7-6.7 28.7-11.7 36-15s16-8.5 26-15.5 16-14.2 18-21.5c4.7-14.7-2.7-36.7-22-66-65.3-102-76.7-188.3-34-259 16.7-27.3 38.8-48.7 66.5-64s57.8-23 90.5-23c33.3 0 63.8 7.7 91.5 23s49.8 36.7 66.5 64c42.7 70.7 31.3 157-34 259-19.3 29.3-26.7 51.3-22 66 2 7.3 8 14.5 18 21.5s18.7 12.2 26 15.5 19.3 8.3 36 15c27.3 11.3 45 19.3 53 24 63.3 39.3 102.7 92 118 158 2 8.7.3 16.7-5 24-5.3 8-12.3 12.3-21 13-2.7.7-13.3 2-32 4s-55 4-109 6-116 3-186 3z"/></svg>
