<svg xmlns="http://www.w3.org/2000/svg" viewBox="0 0 32 32"><title>rows-updated</title><path d="M3.13,8.52a1.5,1.5,0,0,1-1-.34,1.27,1.27,0,0,1-.49-.84,22.29,22.29,0,0,1,0-4.62,1.27,1.27,0,0,1,.49-.84,1.5,1.5,0,0,1,1-.34H28.84a1.54,1.54,0,0,1,1,.34,1.31,1.31,0,0,1,.49.84,22.29,22.29,0,0,1,0,4.62,1.31,1.31,0,0,1-.49.84,1.54,1.54,0,0,1-1,.34Zm25.71,11H3.13a1.5,1.5,0,0,1-1-.34,1.27,1.27,0,0,1-.49-.84,22.29,22.29,0,0,1,0-4.62,1.27,1.27,0,0,1,.49-.84,1.5,1.5,0,0,1,1-.34H28.84a1.54,1.54,0,0,1,1,.34,1.31,1.31,0,0,1,.49.84,22.29,22.29,0,0,1,0,4.62,1.31,1.31,0,0,1-.49.84A1.54,1.54,0,0,1,28.84,19.49Zm0,11H3.13a1.5,1.5,0,0,1-1-.34,1.27,1.27,0,0,1-.49-.84,22.29,22.29,0,0,1,0-4.62,1.27,1.27,0,0,1,.49-.84,1.5,1.5,0,0,1,1-.34H28.84a1.54,1.54,0,0,1,1,.34,1.31,1.31,0,0,1,.49.84,22.29,22.29,0,0,1,0,4.62,1.31,1.31,0,0,1-.49.84A1.54,1.54,0,0,1,28.84,30.46Z"/></svg>