<svg xmlns="http://www.w3.org/2000/svg" viewBox="0 0 24 24"><path d="M0 0h24v24H0V0z" fill="none"/><path d="M19 4h-1V3c0-.5-.5-1-1-1s-1 .5-1 1v1H8V3c0-.5-.4-1-1-1s-1 .5-1 1v1H5c-1.1 0-2 .9-2 2v14c0 1.1.9 2 2 2h14c1.1 0 2-.9 2-2V6c0-1.1-.9-2-2-2zm0 15c0 .5-.5 1-1 1H6c-.6 0-1-.5-1-1V9h14v10z"/><path d="M7 10.7c0-.2.2-.4.4-.4h1.2c.2 0 .4.2.4.4v1.2c0 .2-.2.4-.4.4H7.4c-.2 0-.4-.2-.4-.4v-1.2zM11 10.7c0-.2.2-.4.4-.4h1.2c.2 0 .4.2.4.4v1.2c0 .2-.2.4-.4.4h-1.2c-.2 0-.4-.2-.4-.4v-1.2zM15 10.7c0-.2.2-.4.4-.4h1.2c.2 0 .4.2.4.4v1.2c0 .2-.2.4-.4.4h-1.2c-.2 0-.4-.2-.4-.4v-1.2zM7 13.9c0-.2.2-.4.4-.4h1.2c.2 0 .4.2.4.4v1.2c0 .2-.2.4-.4.4H7.4c-.2 0-.4-.2-.4-.4v-1.2zM11 13.9c0-.2.2-.4.4-.4h1.2c.2 0 .4.2.4.4v1.2c0 .2-.2.4-.4.4h-1.2c-.2 0-.4-.2-.4-.4v-1.2zM15 13.9c0-.2.2-.4.4-.4h1.2c.2 0 .4.2.4.4v1.2c0 .2-.2.4-.4.4h-1.2c-.2 0-.4-.2-.4-.4v-1.2zM7 17.1c0-.2.2-.4.4-.4h1.2c.2 0 .4.2.4.4v1.2c0 .2-.2.4-.4.4H7.4c-.2 0-.4-.2-.4-.4v-1.2zM11 17.1c0-.2.2-.4.4-.4h1.2c.2 0 .4.2.4.4v1.2c0 .2-.2.4-.4.4h-1.2c-.2 0-.4-.2-.4-.4v-1.2zM15 17.1c0-.2.2-.4.4-.4h1.2c.2 0 .4.2.4.4v1.2c0 .2-.2.4-.4.4h-1.2c-.2 0-.4-.2-.4-.4v-1.2z"/></svg>
