<svg xmlns="http://www.w3.org/2000/svg" viewBox="0 0 960 960"><path d="M890 131c11.3 2.7 20.5 8.3 27.5 17s10.5 18.7 10.5 30v699c0 11.3-3.5 21.3-10.5 30s-16.2 14.3-27.5 17l-8 2c-4.7.7-11 1.7-19 3s-17.7 3-29 5-24.3 3.8-39 5.5-30.5 3.5-47.5 5.5-35.7 4-56 6-41.3 3.7-63 5-45.3 2.3-71 3-51.5 1-77.5 1-51.8-.3-77.5-1-49.3-1.7-71-3-42.7-3-63-5-39-4-56-6-32.8-3.8-47.5-5.5-27.7-3.5-39-5.5-21-3.7-29-5-14.3-2.3-19-3l-8-2c-11.3-2.7-20.5-8.3-27.5-17S32 888.3 32 877V178c0-11.3 3.5-21.3 10.5-30s16.2-14.3 27.5-17c.7 0 4.5-.7 11.5-2s17.8-3.2 32.5-5.5 30-4.5 46-6.5v43c0 23.3 8.3 42.5 25 57.5s36.7 22.5 60 22.5c-14-12.7-21-28.7-21-48V64c0-17.3 6.3-32.3 19-45s27.7-19 45-19 32.3 6.3 45 19 19 27.7 19 45v35c40-2 82.7-3 128-3 28.7 0 50 .3 64 1v63c0 23.3 8.3 42.5 25 57.5s36.7 22.5 60 22.5c-14-12.7-21-28.7-21-48V64c0-17.3 6.3-32.3 19-45s27.7-19 45-19 32.3 6.3 45 19 19 27.7 19 45v45c64 6.7 115.3 14 154 22zM480 869c122.7 0 240-9.3 352-28V384H128v457c112 18.7 229.3 28 352 28zm256-421v128H608V448h128zm-192 0v128H416V448h128zm0 320H416V640h128v128zm-192 0H224V640h128v128zm384 0H608V640h128v128z"/></svg>
