<svg xmlns="http://www.w3.org/2000/svg" viewBox="0 0 960 960"><path d="M944 630c9.3 5.3 14.7 13.7 16 25s-3 20.7-13 28c-8 6-17.8 13.5-29.5 22.5s-34.7 25.3-69 49-68.3 46-102 67-73.8 44.3-120.5 70S535 939 493 957c-4 2-8.3 3-13 3s-9-1-13-3c-26.7-11.3-54.5-24.3-83.5-39s-56-29.2-81-43.5-50.2-29.2-75.5-44.5-48-29.7-68-43-39.3-26.5-58-39.5-33.8-23.7-45.5-32S33.7 699.7 25 693l-13-10c-8.7-8-12.7-17.3-12-28 1.3-12 6.7-20.3 16-25l177-97 230 139c16.7 10.7 35.7 16 57 16s40.3-5.3 57-16l229-139 178 97zM16 324c-9.3-4.7-14.7-13.3-16-26-1.3-10 2.7-19 12-27l9-7c6-4 12.8-8.8 20.5-14.5S59.3 236.7 72 228s25.8-17.7 39.5-27 29.5-19.7 47.5-31 36-22.5 54-33.5 37.5-22.5 58.5-34.5 41.8-23.7 62.5-35 42.5-22.5 65.5-33.5S445 12.3 467 3c4-2 8.3-3 13-3s9 1 13 3c66.7 28.7 138.7 65.8 216 111.5s132.7 80.3 166 104 57.3 41.2 72 52.5c10 7.3 14.3 16.3 13 27-1.3 12-6.7 20.7-16 26L496 588c-4.7 2.7-10 4-16 4s-11.3-1.3-16-4L16 324z"/></svg>
