<svg xmlns="http://www.w3.org/2000/svg" viewBox="0 0 960 960"><path d="M589 624.2h188c8.7 0 16.2-3 22.5-9s9.5-13.7 9.5-23c0-2.7-.7-6.7-2-12l-34-212h59c19.3 0 35 6.7 47 20 12 14.7 32.7 69 62 163 12.7 42.7 19 92 19 148 0 69.3-10.7 120.3-32 153-5.3 7.3-10.5 13.7-15.5 19s-17.5 13-37.5 23-44.5 18.2-73.5 24.5-71.5 12-127.5 17-120.7 7.8-194 8.5h-1c-73.3-.7-138-3.7-194-9s-98.3-11-127-17-53.2-14.2-73.5-24.5-33-17.8-38-22.5-10.2-11-15.5-19c-20.7-32.7-31-84-31-154 0-55.3 6.3-104.3 19-147 14-46 25.3-80.8 34-104.5 8.7-23.7 14.5-38.2 17.5-43.5s6.5-10.3 10.5-15c12-13.3 27.7-20 47-20h58l-34 220c-1.3 9.3 1.3 17.7 8 25 6 7.3 14 11 24 11h187c.7 28.7 11.5 53 32.5 73s46.5 30 76.5 30 55.5-10 76.5-30 31.8-44.3 32.5-73zm-332-320c-14 0-23.7-5.7-29-17-6-10.7-5.3-21.3 2-32 50-72.7 126.3-150 229-232 14-10 27.7-10 41 0 7.3 5.3 21.7 16.5 43 33.5s51.3 45 90 84 71 77.2 97 114.5c7.3 10.7 8 21.3 2 32-6 11.3-15.7 17-29 17H588c-6 34.7-13.5 69.3-22.5 104s-15.8 54.7-20.5 60c-13.3 18.7-35 28-65 28-30.7 0-52.7-9.3-66-28-4-6-10.7-26.5-20-61.5s-17-69.2-23-102.5H257z"/></svg>
