<svg xmlns="http://www.w3.org/2000/svg" viewBox="0 0 960 960"><path d="M958 434.2c3.3 30 3.3 60.7 0 92-1.3 11.3-6 21-14 29s-17.3 12.7-28 14l-82 10c-12 2.7-22 8.8-30 18.5s-12 20.8-12 33.5c0 11.3 3 21 9 29 0 .7 16.7 22.7 50 66 6.7 8.7 10 18.5 10 29.5s-3.7 20.8-11 29.5c-19.3 24-41 45.7-65 65-8 7.3-18 11-30 11s-21.7-3.3-29-10l-65-50c-8-6-18-9-30-9-12.7 0-23.8 4.2-33.5 12.5s-15.8 18.8-18.5 31.5l-10 80c-1.3 10.7-6 20-14 28s-17.7 12.7-29 14c-20 1.3-35.3 2-46 2s-26-.7-46-2c-11.3-1.3-21-6-29-14s-12.7-17.3-14-28c-6.7-52.7-10-79.3-10-80-2-12.7-8-23.2-18-31.5s-21.3-12.5-34-12.5c-11.3 0-22 3.3-32 10l-63 49c-7.3 6.7-17 10-29 10-10.7 0-20.7-3.7-30-11-24-19.3-45.7-41-65-65-7.3-8.7-11-18.5-11-29.5s3.3-20.8 10-29.5l48-63c7.3-9.3 11-20 11-32 0-13.3-4.3-25-13-35s-19.7-15.7-33-17l-78-10c-10.7-1.3-20-6-28-14s-12.7-17.7-14-29c-3.3-30-3.3-60.7 0-92 .7-10.7 5-20.2 13-28.5s17.7-13.2 29-14.5l78-10c13.3-2 24.3-8 33-18s13-21.7 13-35c0-11.3-3.7-21.7-11-31l-48-63c-7.3-8.7-10.8-18.5-10.5-29.5s4.2-20.8 11.5-29.5c19.3-24 41-45.7 65-65 8.7-7.3 18.5-11 29.5-11s20.8 3.3 29.5 10l63 49c10 6.7 20.7 10 32 10 12.7 0 24-4.2 34-12.5s16-18.8 18-31.5l10-80c1.3-10.7 6-20 14-28s17.7-12.7 29-14c30-3.3 60.7-3.3 92 0 11.3 1.3 21 6 29 14s12.7 17.3 14 28l10 80c2.7 12.7 8.8 23.2 18.5 31.5s20.8 12.5 33.5 12.5c9.3 0 19.3-3 30-9 28.7-22 50.3-38.7 65-50 8.7-6.7 18.5-10 29.5-10s20.8 3.7 29.5 11c24 19.3 45.7 41 65 65 7.3 8.7 11 18.5 11 29.5s-3.3 20.8-10 29.5c-33.3 43.3-50 65.3-50 66-6 8-9 17.3-9 28 0 12.7 4 23.8 12 33.5s18 16.2 30 19.5c36.7 4.7 64 8 82 10 10.7 1.3 20 6 28 14s12.7 17.7 14 29zm-478 209c45.3 0 83.8-15.8 115.5-47.5S643 525.6 643 480.2s-15.8-83.8-47.5-115.5-70.2-47.5-115.5-47.5-83.8 15.8-115.5 47.5S317 434.9 317 480.2s15.8 83.8 47.5 115.5 70.2 47.5 115.5 47.5z"/></svg>
