<svg xmlns="http://www.w3.org/2000/svg" viewBox="0 0 32 32"><path d="M25.22,10.06a13,13,0,0,1,3.13,8.52A12.74,12.74,0,0,1,15.47,31.5,12.74,12.74,0,0,1,2.58,18.58,12.76,12.76,0,0,1,12.88,5.92V3.6h-.51a1.57,1.57,0,0,1-1.55-1.55A1.57,1.57,0,0,1,12.37.5h6.2a1.57,1.57,0,0,1,1.55,1.55A1.57,1.57,0,0,1,18.57,3.6h-.52V5.92a14.18,14.18,0,0,1,3.46,1.2l2.35-2.39a1.25,1.25,0,0,1,1.71,0l1.65,1.61a1.26,1.26,0,0,1,0,1.72ZM15.47,27.62a9.15,9.15,0,0,0,9.07-9,9.16,9.16,0,0,0-9.07-9,9,9,0,0,0,0,18.08Zm0-5.42a3.61,3.61,0,0,1-3.62-3.62,3.74,3.74,0,0,1,.26-1.32L10,14.93a1.23,1.23,0,0,1,.1-1.77,1.28,1.28,0,0,1,1.68,0l2.36,2.06A3.41,3.41,0,0,1,15.47,15a3.62,3.62,0,0,1,0,7.23Z"/></svg>
