<svg xmlns="http://www.w3.org/2000/svg" viewBox="0 0 960 960"><path d="M354 278c8.7-26.7 16-61 22-103s9.8-74.8 11.5-98.5S390 38 390 32c0-8.7 3.2-16.2 9.5-22.5S413.3 0 422 0h116c8.7 0 16.2 3.2 22.5 9.5S570 23.3 570 32c0 5.3.8 20 2.5 44s5.5 57 11.5 99 13.3 76.3 22 103c4 9.3 2.7 18.7-4 28-6 9.3-14.7 14-26 14H384c-11.3 0-20-4.7-26-14-6-8-7.3-17.3-4-28zm546-161c8 .7 14.7 4.2 20 10.5s8 13.5 8 21.5v744c0 8-2.5 15-7.5 21s-11.5 9.3-19.5 10c-8 2-31 5.5-69 10.5S740.2 945 670.5 951s-133.2 9-190.5 9-120.8-3-190.5-9S166 939.5 128 934.5 67 926 59 924c-7.3-1.3-13.7-4.8-19-10.5S32 901 32 893V149c0-8 2.7-15.2 8-21.5s12-9.8 20-10.5c74-8.7 160-15.3 258-20-3.3 46.7-9 87.3-17 122-61.3 2.7-108.3 6-141 10v586c147.3 15.3 254 23 320 23 115.3 0 222-7.7 320-23V229c-33.3-4-80.3-7.3-141-10-8.7-38-14-78.7-16-122 97.3 4.7 183 11.3 257 20zM328 712c-13.3 16-30 24-50 24-14 0-27.3-4.7-40-14-14-10.7-22-24.8-24-42.5s2.7-33.5 14-47.5l138-160c12.7-15.3 28.3-23.3 47-24 19.3-1.3 35.3 5 48 19l78 77 96-117c11.3-13.3 25.7-21 43-23s33 2.3 47 13c13.3 11.3 21 25.8 23 43.5s-2.3 33.2-13 46.5L594 680c-12 14.7-27.3 22.7-46 24s-35-5-49-19l-78-77-93 104z"/></svg>
