<svg xmlns="http://www.w3.org/2000/svg" viewBox="0 0 32 32"><title>unlock-updated</title><path d="M21.43,30.22a41.87,41.87,0,0,1-9.5,1.08,42.41,42.41,0,0,1-9.62-1.08,2,2,0,0,1-1.15-.72,2,2,0,0,1-.45-1.29l0-10.93a2.43,2.43,0,0,1,.58-1.6,1.77,1.77,0,0,1,1.4-.7H15V8.86A8,8,0,0,1,17.24,3,8,8,0,0,1,23.15.7,8,8,0,0,1,29.06,3a8,8,0,0,1,2.25,5.91v7.65a2.55,2.55,0,1,1-5.1,0V8.86q0-3.06-3.06-3.06T20.09,8.86V15H21a2,2,0,0,1,1.49.67,2.22,2.22,0,0,1,.62,1.53v11a1.88,1.88,0,0,1-.5,1.29,2.28,2.28,0,0,1-1.22.72Z"/></svg>