<svg xmlns="http://www.w3.org/2000/svg" xmlns:xlink="http://www.w3.org/1999/xlink" x="0px" y="0px" viewBox="0 0 960 960" style="enable-background:new 0 0 960 960;" xml:space="preserve"><path d="M480.4,252.7c10.8,0.3,20.7,2.5,30,6.6c9.2,4.1,18.1,10.6,26.7,19.4l304,311.4c13,13,19.4,28.7,19.4,47.1 c0,13-3.1 24.7-9.3,35.4c-6.2,10.6-14.5,19-24.8,25.2s-21.9,9.3-34.5,9.3c-19.3,0-36.3-7.4-50.9-22.3L464.7,398.7h31.8L219,684.9 c-14.6,14.9-31.6,22.3-50.9,22.3c-12.7,0-24.2-3.1-34.5-9.3s-18.6-14.6-24.8-25.2c-6.2-10.6-9.3-22.4-9.3-35.4 c0-9.1,1.7-17.6,5-25.4c3.3-7.9,8.1-15.2,14.5-22.1l304-311C440.3,261.4,459.5,252.7,480.4,252.7z"/></svg>
