<svg xmlns="http://www.w3.org/2000/svg" viewBox="0 0 32 32"><path d="M30.17,30.37a25.73,25.73,0,0,1-3.27.56,91.86,91.86,0,0,1-10.9.54c-10.37,0-14-1.07-14.17-1.1A1.07,1.07,0,0,1,1.1,29.1c.67-3.13,2.4-4.8,4.77-6.3a16,16,0,0,1,2.36-1.1c1.6-.63,3.44-1.37,3.84-2.6.26-.8-.07-1.9-1-3.3C8.3,11.33,7.8,7.47,9.6,4.37A7.44,7.44,0,0,1,16,.53a7.4,7.4,0,0,1,6.4,3.84c1.8,3.1,1.3,7-1.47,11.43-.9,1.4-1.23,2.5-1,3.3.4,1.23,2.24,2,3.87,2.6a18.92,18.92,0,0,1,2.33,1.1c2.37,1.5,4.1,3.17,4.77,6.3A1.07,1.07,0,0,1,30.17,30.37Z"/></svg>
