<svg xmlns="http://www.w3.org/2000/svg" viewBox="0 0 960 960"><path d="M544 656V464H192v192h352zm390-250c17.3 8.7 26 22.3 26 41v290c0 18.7-8.7 32.3-26 41-6.7 4-14.7 6-24 6-10.7 0-19.7-2.3-27-7l-147-85v121c0 14.7-4.5 27.8-13.5 39.5S701.7 871.7 687 875c-106.7 24.7-213 37-319 37s-212.3-12.3-319-37c-14.7-3.3-26.5-10.8-35.5-22.5S0 827.7 0 813V386c0-16 5.3-30 16-42s24-19 40-21c120-15.3 241.7-21.3 365-18l-37-102c-32-2-77.3-3-136-3-14.7 0-39.3.8-74 2.5s-55.3 2.5-62 2.5c-20.7 1.3-38.5-5-53.5-19S35.7 154.7 35 134c-.7-20 5.7-37.3 19-52s30-22.7 50-24c80-6.7 154.7-10 224-10l115 3c15.3.7 29.3 5.7 42 15s21.7 21 27 35v1l82 212c18.7 2 47.3 5 86 9 16 2 29.3 9 40 21s16 26 16 42v106l147-85c16.7-9.3 33.7-9.7 51-1z"/></svg>
