<svg xmlns="http://www.w3.org/2000/svg" viewBox="0 0 32 32"><title>wrench-updated</title><path d="M30.18,9.14a3.77,3.77,0,0,1,.72,1.64,14.23,14.23,0,0,1,.36,2.82,9.74,9.74,0,0,1-.57,3.4,7.94,7.94,0,0,1-1.91,3.11,8.46,8.46,0,0,1-6.23,2.47,12.07,12.07,0,0,1-5-1.07L7.5,30.24a4.06,4.06,0,0,1-3,1,3.88,3.88,0,0,1-2.82-1.42,4,4,0,0,1-1-2.72,4.08,4.08,0,0,1,1-2.68L10.45,14.3a12.24,12.24,0,0,1-1-6.16,8,8,0,0,1,2.38-5.06Q14.18.79,18.52.79a11.6,11.6,0,0,1,2.6.27,3.78,3.78,0,0,1,1.53.62.85.85,0,0,1,0,1.26L18.31,7.39a2.73,2.73,0,0,0-.79,1.54,2.65,2.65,0,0,0,.28,1.68,7.54,7.54,0,0,0,1.5,2,7.62,7.62,0,0,0,2,1.51A2.69,2.69,0,0,0,23,14.4a2.64,2.64,0,0,0,1.53-.79L28.88,9.1a.83.83,0,0,1,1.3,0Z"/></svg>